# xmcd
#
# Track frame offsets:
#	187
#	12875
#	29762
#	39212
#	49700
#	60945
#	72500
#	82225
#	92580
#	107612
#
# Disc length: 1603
#
# Revision: 3
# Processed by: cddbd v1.5.1PL0 Copyright (c) Steve Scherf et al.
# Submitted via: CDex 1.40Release
# Normalized: r2:DSETVAR1,TDELIM( - )
#
DISCID=7a06410a
DTITLE=Various Artist - Country's Greatest Hits Of The 60's - Volume One
DYEAR=1994
DGENRE=Country
TTITLE0=Bill Anderson - Still
TTITLE1=Patsy Cline - Faded Love
TTITLE2=Burl Ives - A Little Bitty Tear
TTITLE3=Warner Mack - The Bridge Washed Out
TTITLE4=Hank Thompson - Smoky The Bar
TTITLE5=Conway Twitty - I Love You More Today
TTITLE6=Loretta Lynn - Don't Come Home A' Drinkin'
TTITLE7=Loretta Lynn - Dear Uncle Sam
TTITLE8=Roy Clark - Yesterday When I Was Young
TTITLE9=Patsy Cline - I Fall To Pieces
EXTD=YEAR: 1994 ID3G: 2
EXTT0=
EXTT1=
EXTT2=
EXTT3=
EXTT4=
EXTT5=
EXTT6=
EXTT7=
EXTT8=
EXTT9=
PLAYORDER=
